<svg xmlns:xlink="http://www.w3.org/1999/xlink" id="Group_3077" data-name="Group 3077" xmlns="http://www.w3.org/2000/svg" width="26.681" height="26.598" viewBox="0 0 26.681 26.598">
  <path id="Path_11147" data-name="Path 11147" d="M25.582,5.807a3.1,3.1,0,0,1,4.309,0l2.4,2.4a3.1,3.1,0,0,1,0,4.308L14.064,30.663a3.1,3.1,0,0,1-4.309,0l-2.4-2.4a3.1,3.1,0,0,1,0-4.308Z" transform="translate(-6.483 -4.937)" fill="#191919"></path>
  <path id="Path_11148" data-name="Path 11148" d="M14.064,5.807a3.1,3.1,0,0,0-4.309,0l-2.4,2.4a3.1,3.1,0,0,0,0,4.309L25.582,30.665a3.1,3.1,0,0,0,4.309,0l2.4-2.4a3.1,3.1,0,0,0,0-4.309Z" transform="translate(-6.483 -4.937)" fill="#191919"></path>
</svg>