<svg xmlns:xlink="http://www.w3.org/1999/xlink" id="Group_3078" data-name="Group 3078" xmlns="http://www.w3.org/2000/svg" width="29.814" height="22.872" viewBox="0 0 29.814 22.872">
  <path id="Union_8" data-name="Union 8" d="M9.737,22.129.744,13.066a2.65,2.65,0,0,1,0-3.683L2.8,7.329a2.655,2.655,0,0,1,3.684,0l5.087,5.127L23.335.743a2.653,2.653,0,0,1,3.683,0L29.071,2.8a2.653,2.653,0,0,1,0,3.683L15.767,19.72a2.383,2.383,0,0,1-.294.356L13.42,22.129a2.654,2.654,0,0,1-3.684,0Z" transform="translate(0 0)" fill="#F9F8F8"></path>
</svg>